HIERARCHY
ROOT Hips
{
	OFFSET 0.00000 0.00000 0.00000
	CHANNELS 6 Xposition Yposition Zposition Zrotation Yrotation Xrotation 
	JOINT LHipJoint
	{
		OFFSET 0 0 0
		CHANNELS 3 Zrotation Yrotation Xrotation
		JOINT LeftHip
		{
			OFFSET 1.62329 -1.80800 0.67318
			CHANNELS 3 Zrotation Yrotation Xrotation
			JOINT LeftKnee
			{
				OFFSET 2.57139 -7.06484 0.00000
				CHANNELS 3 Zrotation Yrotation Xrotation
				JOINT LeftAnkle
				{
					OFFSET 2.52017 -6.92413 0.00000
					CHANNELS 3 Zrotation Yrotation Xrotation
					JOINT LeftToe
					{
						OFFSET 0.23295 -0.64001 2.10214
						CHANNELS 3 Zrotation Yrotation Xrotation
						End Site
						{
							OFFSET 0.00000 -0.00000 1.10139
						}
					}
				}
			}
		}
	}
	JOINT RHipJoint
	{
		OFFSET 0 0 0
		CHANNELS 3 Zrotation Yrotation Xrotation
		JOINT RightHip
		{
			OFFSET -1.48061 -1.80800 0.67318
			CHANNELS 3 Zrotation Yrotation Xrotation
			JOINT RightKnee
			{
				OFFSET -2.63258 -7.23296 0.00000
				CHANNELS 3 Zrotation Yrotation Xrotation
				JOINT RightAnkle
				{
					OFFSET -2.54779 -7.00000 0.00000
					CHANNELS 3 Zrotation Yrotation Xrotation
					JOINT RightToe
					{
						OFFSET -0.23067 -0.63376 2.12161
						CHANNELS 3 Zrotation Yrotation Xrotation
						End Site
						{
							OFFSET -0.00000 -0.00000 1.11000
						}
					}
				}
			}
		}
	}
	JOINT lowerback
	{
		OFFSET 0 0 0
		CHANNELS 3 Zrotation Yrotation Xrotation
		JOINT Chest
		{
			OFFSET -0.02108 2.07573 -0.16981
			CHANNELS 3 Zrotation Yrotation Xrotation
			JOINT Chest2
			{
				OFFSET 0.05070 2.08439 -0.03141
				CHANNELS 3 Zrotation Yrotation Xrotation
				JOINT lowerneck
				{
					OFFSET 0 0 0
					CHANNELS 3 Zrotation Yrotation Xrotation
					JOINT Neck
					{
						OFFSET -0.10731 1.60408 0.31370
						CHANNELS 3 Zrotation Yrotation Xrotation
						JOINT Head
						{
							OFFSET 0.08411 1.65679 -0.30822
							CHANNELS 3 Zrotation Yrotation Xrotation
							End Site
							{
								OFFSET 0.03911 1.69149 -0.14146
							}
						}
					}
				}
				JOINT LeftCollar
				{
					OFFSET 0 0 0
					CHANNELS 3 Zrotation Yrotation Xrotation
					JOINT LeftShoulder
					{
						OFFSET 3.52315 0.73219 -0.54694
CHANNELS 3 Zrotation Xrotation Yrotation
						JOINT LeftElbow
						{
OFFSET 0 -5.324620 -0.000000
CHANNELS 3 Zrotation Xrotation Yrotation
							JOINT LeftWrist
							{
OFFSET 0 -3.484020 -0.000000
CHANNELS 3 Zrotation Xrotation Yrotation
								JOINT lhand
								{
									OFFSET 0 0 0
CHANNELS 3 Zrotation Xrotation Yrotation
									JOINT LFingers
									{
OFFSET 0 -0.572480 -0.000000
CHANNELS 3 Zrotation Xrotation Yrotation
										End Site
										{
OFFSET 0 -0.461540 -0.000000
										}
									}
								}
								JOINT LThumb
								{
OFFSET 0 0.000000 0.000000
CHANNELS 3 Zrotation Xrotation Yrotation
									End Site
									{
OFFSET 0 -0.468590 0.468590
									}
								}
							}
						}
					}
				}
				JOINT RightCollar
				{
					OFFSET 0 0 0
					CHANNELS 3 Zrotation Yrotation Xrotation
					JOINT RightShoulder
					{
						OFFSET -3.41766 0.93592 -0.10019
CHANNELS 3 Zrotation Xrotation Yrotation
						JOINT RightElbow
						{
OFFSET 0 -5.335890 -0.000000
CHANNELS 3 Zrotation Xrotation Yrotation
							JOINT RightWrist
							{
OFFSET 0 -3.641340 -0.000000
CHANNELS 3 Zrotation Xrotation Yrotation
								JOINT rhand
								{
									OFFSET 0 0 0
CHANNELS 3 Zrotation Xrotation Yrotation
									JOINT RFingers
									{
OFFSET 0 -0.734810 -0.000000
CHANNELS 3 Zrotation Xrotation Yrotation
										End Site
										{
OFFSET 0 -0.592420 -0.000000
										}
									}
								}
								JOINT RThumb
								{
OFFSET 0 0.000000 0.000000
CHANNELS 3 Zrotation Xrotation Yrotation
									End Site
									{
OFFSET 0 -0.601470 0.601470
									}
								}
							}
						}
					}
				}
			}
		}
	}
}
MOTION
Frames: 15
Frame Time: .03333
-1.8313 16.3875 -0.6279 2.9715 4.9112 -2.1016 0.0000 0.0000 0.0000 -2.2651 -7.0843 -5.9792 4.8072 13.1634 39.9832 -0.2923 -20.7733 -12.1730 3.8928 -12.0164 -35.7901 0.0000 0.0000 0.0000 2.1770 17.7898 -2.0179 -6.3216 -14.7329 46.2592 -0.9898 16.4377 -19.7954 -1.1079 6.6874 -18.7926 -3.6647 -1.3125 11.9239 1.1617 -2.1928 -1.1601 3.7070 -0.8831 -7.7564 -11.0632 -2.9565 -25.4395 6.6173 -1.6979 23.0730 4.0462 -0.8659 11.9570 -0.0000 -0.0000 0.0000 114.1867 -6.2571 46.6725 54.9495 -54.8066 30.1747 29.7373 12.1716 -26.7517 0.0 0.0 0.0 -7.1250 0.0 0.0 -0.3755 60.1157 0.1385 -0.0000 -0.0000 0.0000 -119.0227 -13.134 -55.7855 -48.0251 -52.1672 -24.6055 -36.0908 9.0466 6.825 0.0 0.0 0.0 7.1250 0.0 -0.0 -8.0231 38.2902 -1.3359
-1.7998 15.8264 -0.7168 3.4777 4.6365 -3.7003 0.0000 0.0000 0.0000 -2.3675 -4.3140 -7.7985 6.2637 14.6791 46.0310 0.8485 -20.7204 -20.6468 3.5851 -11.5868 -34.2855 0.0000 0.0000 0.0000 1.4571 16.3782 -4.2309 -8.1542 -16.2315 53.1164 -2.3533 16.1169 -28.1903 -2.1623 9.1963 -26.4112 -4.2530 -1.1114 14.8371 1.2705 -2.1119 -0.5328 4.2448 -0.7924 -8.7205 -11.2548 -3.0412 -26.0341 6.3316 -1.5668 22.3915 3.9732 -0.8398 11.7923 -0.0000 -0.0000 0.0000 118.207 -3.617 46.6224 75.4302 -59.1825 47.4168 39.8396 20.7594 -19.1407 0.0 0.0 0.0 -7.1250 0.0 0.0 12.3971 53.876 -2.7376 -0.0000 -0.0000 0.0000 -123.0726 -12.0192 -56.0322 -62.9268 -57.0407 -36.7868 -47.3253 8.4449 -2.9906 0.0 0.0 0.0 7.1250 0.0 -0.0 -15.4985 25.5247 -7.5729
-1.7866 15.5582 -0.7449 4.2640 4.8486 -4.2331 0.0000 0.0000 0.0000 -3.0239 -4.0678 -7.8408 6.6224 15.0055 47.4313 1.6512 -20.5818 -25.4265 3.7099 -11.7640 -34.9020 0.0000 0.0000 0.0000 0.4568 16.9233 -4.7090 -9.0596 -16.8459 56.2959 -2.8815 16.6797 -31.1006 -2.4016 9.6567 -27.8719 -5.0873 -0.8731 15.7365 1.1767 -1.9840 -0.0121 4.6126 -0.7073 -8.6513 -11.5336 -3.2906 -26.0736 6.4472 -1.8036 21.1486 3.9868 -0.9243 11.3540 -0.0000 -0.0000 0.0000 119.8353 -1.8661 47.3849 89.9560 -60.0 59.9619 48.9313 31.084 -15.1047 0.0 0.0 0.0 -7.1250 0.0 0.0 21.9329 50.9752 -3.3675 -0.0000 -0.0000 0.0000 -125.0607 -9.7951 -55.2134 -72.6205 -58.8274 -45.0082 -65.4883 1.3363 -10.1051 0.0 0.0 0.0 7.1250 0.0 -0.0 -24.5632 8.2427 -23.0825
-1.7265 15.6235 -0.6855 4.1364 5.4444 -4.1808 0.0000 0.0000 0.0000 -3.6426 -4.9608 -6.6722 6.2451 14.6618 45.9578 1.7680 -19.3996 -25.6985 3.5170 -11.4883 -33.9451 0.0000 0.0000 0.0000 0.6808 17.2217 -3.3846 -8.6506 -16.5775 54.8738 -2.6647 16.9969 -30.0257 -2.2669 9.4012 -27.0585 -4.5253 -1.0824 15.1654 1.5249 -2.1069 -0.2319 4.6795 -0.7822 -8.5600 -11.7059 -3.0756 -25.8403 6.0708 -1.3774 21.9937 3.9663 -0.8213 11.5889 0.0000 -0.0000 0.0000 117.3414 -1.7167 45.9487 89.3530 -59.9984 59.4397 50.109 31.5059 -17.1724 0.0 0.0 0.0 -7.1250 0.0 0.0 24.1260 54.0352 -5.6086 0.0000 -0.0000 0.0000 -124.3747 -9.6029 -52.6222 -70.9450 -58.5826 -43.5764 -61.5462 8.2207 -7.1844 0.0 0.0 0.0 7.1250 0.0 -0.0 -23.4915 15.8291 -17.7737
-1.6919 16.0358 -0.5974 3.4352 6.3721 -3.3811 0.0000 0.0000 0.0000 -4.1089 -7.0939 -5.1374 5.3074 13.7218 42.1343 1.2494 -16.5236 -21.6098 3.8866 -12.0080 -35.7601 0.0000 0.0000 0.0000 1.8843 16.1907 -1.7230 -7.2870 -15.5689 49.9516 -2.0158 14.8094 -26.0196 -1.9317 8.7223 -24.9306 -3.5886 -1.4320 13.6209 1.9898 -2.3228 -0.7371 4.6389 -0.9205 -8.2244 -11.5259 -3.0856 -25.9598 5.8535 -1.4058 23.1571 3.8828 -0.8780 12.0614 0.0000 -0.0000 0.0000 112.2298 -1.3784 43.9573 75.0379 -59.137 47.08 40.7014 19.9091 -16.9863 0.0 0.0 0.0 -7.1250 0.0 0.0 13.1922 51.4517 -2.1275 0.0000 -0.0000 0.0000 -120.264 -9.4183 -49.6714 -61.5756 -56.7154 -35.6552 -50.9693 3.1599 -6.2881 0.0 0.0 0.0 7.1250 0.0 -0.0 -17.2075 20.2364 -10.6793
-1.6659 16.6906 -0.5104 3.0465 6.0199 -2.4512 0.0000 0.0000 0.0000 -4.8112 -8.6799 -3.0527 4.1441 12.3497 36.9804 0.2450 -13.6598 -12.3335 4.2737 -12.5160 -37.5828 0.0000 0.0000 0.0000 2.4983 16.2353 -0.2610 -5.7073 -14.1386 43.7953 -0.7956 11.5745 -16.7305 -1.1778 6.8881 -19.3844 -3.2299 -1.3399 12.0498 2.3708 -2.0748 -1.2522 4.7428 -0.8097 -7.9093 -11.6261 -3.1720 -25.1058 6.2558 -1.7152 22.9808 3.9911 -0.9752 11.8672 0.0000 -0.0000 0.0000 104.8639 0.2026 41.0455 60.2970 -56.3886 34.5884 31.3458 10.8566 -20.5383 0.0 0.0 0.0 -7.1250 0.0 0.0 2.9811 53.6411 -0.6339 0.0000 -0.0000 0.0000 -113.307 -8.5557 -47.1467 -52.5951 -53.99 -28.2602 -43.3513 4.6439 -3.2976 0.0 0.0 0.0 7.1250 0.0 -0.0 -12.5481 25.4261 -6.0844
-1.6570 17.5074 -0.4316 2.8774 4.9766 -1.6550 0.0000 0.0000 0.0000 -5.7552 -9.6972 -1.2921 3.0847 10.8310 31.7120 -0.2220 -8.6317 0.7098 3.2990 -11.1640 -32.8350 0.0000 0.0000 0.0000 2.8746 17.6253 0.4919 -4.4177 -12.6964 38.2425 -0.0949 3.7608 -5.6961 -0.1886 2.7969 -7.7138 -2.8350 -0.9935 10.9170 2.3261 -1.5356 -1.0728 4.3252 -0.5896 -7.1353 -11.5641 -3.6045 -26.6712 6.8287 -2.3186 23.1625 4.1128 -1.1463 12.3026 -0.0000 0.0000 0.0000 96.2228 2.5688 38.0464 49.9338 -52.9687 26.1213 26.7283 2.4811 -25.1912 0.0 0.0 0.0 -7.1250 0.0 0.0 -3.2612 57.7236 1.0165 -0.0000 0.0000 0.0000 -103.9596 -7.1242 -46.2175 -45.8857 -51.1951 -22.9269 -36.7956 9.9755 0.3274 0.0 0.0 0.0 7.1250 0.0 -0.0 -8.0785 30.3352 -2.9182
-1.6636 18.2800 -0.3396 2.9268 4.2087 -0.7646 0.0000 0.0000 0.0000 -7.2316 -11.0353 0.0896 2.1141 9.0998 26.1080 0.3952 -0.8768 12.2246 3.3537 -11.2468 -33.1166 0.0000 0.0000 0.0000 3.1573 18.2875 0.3771 -3.3756 -11.2796 33.2289 0.1195 -6.9452 0.9671 -0.0806 1.8309 -5.0387 -2.6883 -0.8514 9.5196 2.0864 -1.3170 -0.7920 3.9003 -0.5232 -6.0704 -11.4630 -3.9266 -27.3883 7.4105 -2.8841 22.7779 4.2142 -1.2894 12.3549 -0.0000 0.0000 0.0000 87.5252 5.0431 34.8807 41.6265 -49.0046 19.6582 26.1919 -4.6323 -28.1957 0.0 0.0 0.0 -7.1250 0.0 0.0 -5.1384 60.7628 1.9771 -0.0000 0.0000 0.0000 -93.5565 -5.885 -44.8591 -40.5646 -48.4008 -18.8603 -32.9783 11.4788 4.1932 0.0 0.0 0.0 7.1250 0.0 -0.0 -5.2565 34.9361 -1.3036
-1.6838 18.8713 -0.2628 2.8124 3.9528 0.5371 0.0000 0.0000 0.0000 -8.6606 -12.2412 -0.1456 1.6969 8.2039 23.3352 0.4874 5.0649 12.4335 2.5881 -9.9963 -28.9649 0.0000 0.0000 0.0000 3.9564 17.6595 -1.2652 -2.9389 -10.5956 30.9277 0.2093 -8.9279 0.7812 -0.0663 1.6609 -4.5695 -2.6413 -0.9750 8.0846 2.0514 -1.4519 -0.9482 3.8145 -0.6050 -5.4115 -11.8056 -4.0908 -27.1165 7.7259 -3.1042 22.8611 4.3566 -1.3811 12.3748 -0.0000 0.0000 0.0000 78.1072 7.2264 31.6563 36.2227 -45.6657 15.6816 26.7184 -11.6845 -31.4106 0.0 0.0 0.0 -7.1250 0.0 0.0 -6.2931 64.2332 2.9374 -0.0000 0.0000 0.0000 -83.4836 -5.0102 -42.3918 -35.3465 -45.0579 -15.0581 -30.2167 8.1153 7.3954 0.0 0.0 0.0 7.1250 0.0 -0.0 -2.9446 38.5065 -0.4714
-1.7125 19.2622 -0.2426 2.9389 3.7216 1.4569 0.0000 0.0000 0.0000 -10.4691 -11.0754 -2.1768 1.7589 8.3446 23.7658 -0.0546 7.2205 3.6694 1.7580 -8.3427 -23.7599 0.0000 0.0000 0.0000 4.7338 15.3044 -4.2859 -3.0408 -10.7608 31.4775 0.0349 -4.1769 -4.2337 -0.0177 0.8596 -2.3625 -2.9482 -0.9409 7.6757 1.9036 -1.4362 -1.1354 3.8229 -0.5886 -5.3743 -11.8039 -4.0988 -26.1640 7.6958 -3.2239 22.6411 4.3108 -1.4495 12.1229 0.0000 -0.0000 0.0000 68.5721 8.566 28.576 32.9876 -43.3205 13.4135 27.6092 -19.44 -34.4824 0.0 0.0 0.0 -7.1250 0.0 0.0 -7.3812 67.623 4.0241 0.0000 -0.0000 0.0000 -73.3905 -3.5648 -39.079 -31.5976 -42.224 -12.4696 -26.0606 1.2894 8.8625 0.0 0.0 0.0 7.1250 0.0 -0.0 0.7457 39.8256 0.0951
-1.7480 19.4828 -0.2525 2.8483 3.7076 1.5594 0.0000 0.0000 0.0000 -12.1302 -8.7378 -4.6074 1.9770 8.8180 25.2277 -0.0822 5.9526 1.1388 2.6025 -10.0219 -29.0477 0.0000 0.0000 0.0000 6.3527 11.6649 -7.1678 -3.3150 -11.1884 32.9178 -0.0049 -3.1417 -4.7388 -0.0841 1.8706 -5.1482 -3.1401 -0.9659 8.3538 1.8527 -1.5070 -0.8857 3.9017 -0.6193 -5.4870 -11.3072 -3.8519 -25.9355 7.1539 -2.9339 22.2696 4.0564 -1.3448 11.8833 -0.0000 0.0000 0.0000 58.7425 9.0192 26.3561 30.8390 -41.6017 11.9628 27.5097 -25.0047 -35.8936 0.0 0.0 0.0 -7.1250 0.0 0.0 -8.7771 69.0081 5.0645 -0.0000 0.0000 0.0000 -63.2232 -2.3411 -34.794 -29.8095 -40.7296 -11.2851 -25.3857 -3.7473 10.8436 0.0 0.0 0.0 7.1250 0.0 -0.0 1.5277 41.9454 0.1152
-1.7825 19.5080 -0.2641 2.8151 3.7183 2.0150 0.0000 0.0000 0.0000 -13.8589 -6.0265 -7.9754 2.2817 9.4297 27.1490 0.0683 3.5491 4.9245 2.4033 -9.6600 -27.8825 0.0000 0.0000 0.0000 8.1025 7.8415 -10.8869 -3.8209 -11.9182 35.4432 0.0218 -2.7163 -1.7552 -0.1326 2.3475 -6.4670 -3.2576 -0.9303 8.6322 1.7393 -1.4843 -0.7167 3.8509 -0.6092 -5.4690 -11.1371 -3.6368 -25.3888 6.9949 -2.6989 21.6512 3.9884 -1.2419 11.5133 0.0000 -0.0000 0.0000 48.7593 8.2554 24.1128 29.3342 -40.3158 10.9763 28.7684 -25.8014 -35.6408 0.0 0.0 0.0 -7.1250 0.0 0.0 -6.8061 69.151 3.9447 0.0000 -0.0000 0.0000 -52.7817 -0.8352 -30.0901 -29.3030 -40.2884 -10.9561 -26.8774 -5.2852 10.694 0.0 0.0 0.0 7.1250 0.0 -0.0 0.1752 41.9335 0.0133
-1.8197 19.3199 -0.2786 2.8298 3.9028 2.7007 0.0000 0.0000 0.0000 -15.8002 -3.5624 -11.8191 2.7604 10.2966 29.9427 0.0699 -1.9755 6.1324 2.3555 -9.5704 -27.5964 0.0000 0.0000 0.0000 9.9919 4.5510 -14.5740 -4.4396 -12.7235 38.3421 -0.0014 -0.6031 0.7360 -0.1038 2.0771 -5.7187 -3.4238 -0.9579 8.3604 1.6200 -1.5339 -0.3707 3.8100 -0.6492 -4.9466 -10.9690 -3.5088 -25.3404 6.8517 -2.5417 21.3950 3.9256 -1.1712 11.3856 -0.0000 0.0000 0.0000 39.2475 6.5769 21.8469 27.5652 -38.7129 9.8506 28.0897 -25.8981 -34.6555 0.0 0.0 0.0 -7.1250 0.0 0.0 -6.8815 67.9444 3.8009 -0.0000 0.0000 0.0000 -42.3588 0.1079 -25.8677 -29.3025 -40.288 -10.9558 -27.264 -6.4134 9.042 0.0 0.0 0.0 7.1250 0.0 -0.0 -0.2972 40.1294 -0.0357
-1.8660 18.9345 -0.3078 2.6669 4.3268 3.0998 0.0000 0.0000 0.0000 -17.6395 -1.9272 -14.9481 3.3081 11.1779 32.8821 -0.1005 -6.5142 5.9023 2.4998 -9.8375 -28.4521 0.0000 0.0000 0.0000 12.3827 2.1784 -17.5287 -5.1400 -13.5398 41.4242 -0.0029 0.5873 1.4131 -0.1074 2.1128 -5.8174 -3.5302 -0.9048 8.7840 1.5450 -1.4903 -0.3133 3.7977 -0.6220 -5.1287 -10.9281 -3.4581 -24.4694 7.0574 -2.6359 21.0794 3.9692 -1.1906 11.1183 -0.0000 0.0000 0.0000 30.2179 5.43 16.7209 26.3549 -37.557 9.1031 27.99 -26.762 -34.6472 0.0 0.0 0.0 -7.1250 0.0 0.0 -7.0089 67.9055 3.8653 -0.0000 0.0000 0.0000 -31.9112 1.857 -21.0969 -30.0238 -40.9138 -11.4252 -28.4436 -8.5067 9.9914 0.0 0.0 0.0 7.1250 0.0 -0.0 -1.2808 41.3061 -0.1167
-1.9086 18.3586 -0.3315 2.5103 4.7216 3.3739 0.0000 0.0000 0.0000 -19.5229 -0.8840 -17.6498 4.0855 12.2734 36.7060 -0.2693 -9.3486 5.4571 2.3443 -9.5491 -27.5286 0.0000 0.0000 0.0000 14.8437 0.1952 -19.9614 -5.9550 -14.3846 44.8009 -0.0016 0.5695 -0.7635 -0.0070 -0.5412 1.4871 -3.6208 -0.9992 8.8193 1.5216 -1.6240 0.0419 3.8346 -0.7010 -4.7620 -11.1677 -3.3358 -23.6589 7.4417 -2.5459 20.2912 4.1432 -1.1196 10.6769 -0.0000 0.0000 0.0000 21.069 3.7074 12.1178 25.2666 -36.4753 8.4479 26.4478 -28.7623 -35.1762 0.0 0.0 0.0 -7.1250 0.0 0.0 -9.5258 67.9651 5.2749 -0.0000 0.0000 0.0000 -22.0284 1.8816 -16.8581 -29.7883 -40.7112 -11.2713 -28.2214 -11.6927 10.851 0.0 0.0 0.0 7.1250 0.0 -0.0 -1.0222 42.2507 -0.0693
